<?xml version="1.0" encoding="UTF-8"?>
<svg xmlns="http://www.w3.org/2000/svg" xmlns:xlink="http://www.w3.org/1999/xlink" width="375pt" height="374.999991pt" viewBox="0 0 375 374.999991" version="1.2">
<defs>
<clipPath id="clip1">
  <path d="M 26 148 L 153.324219 148 L 153.324219 284.917969 L 26 284.917969 Z M 26 148 "/>
</clipPath>
<clipPath id="clip2">
  <path d="M 6.324219 120 L 68 120 L 68 187 L 6.324219 187 Z M 6.324219 120 "/>
</clipPath>
<clipPath id="clip3">
  <path d="M 82 89.917969 L 126 89.917969 L 126 137 L 82 137 Z M 82 89.917969 "/>
</clipPath>
<clipPath id="clip4">
  <path d="M 186 161 L 270.355469 161 L 270.355469 251.53125 L 186 251.53125 Z M 186 161 "/>
</clipPath>
<clipPath id="clip5">
  <path d="M 173.605469 143 L 215 143 L 215 187 L 173.605469 187 Z M 173.605469 143 "/>
</clipPath>
<clipPath id="clip6">
  <path d="M 223 123.28125 L 253 123.28125 L 253 154 L 223 154 Z M 223 123.28125 "/>
</clipPath>
<clipPath id="clip7">
  <path d="M 310 169 L 368.5 169 L 368.5 232.53125 L 310 232.53125 Z M 310 169 "/>
</clipPath>
<clipPath id="clip8">
  <path d="M 336 142.53125 L 356 142.53125 L 356 164 L 336 164 Z M 336 142.53125 "/>
</clipPath>
</defs>
<g id="surface1">
<g clip-path="url(#clip1)" clip-rule="nonzero">
<path style=" stroke:none;fill-rule:nonzero;fill:rgb(95.289612%,70.588684%,0%);fill-opacity:1;" d="M 112.960938 198.230469 C 92.488281 177.074219 91.285156 148.613281 91.273438 148.328125 L 88.507812 148.328125 C 88.496094 148.613281 87.324219 177.042969 66.820312 198.230469 C 54.988281 210.457031 43.71875 215.222656 26.632812 215.222656 L 26.632812 217.992188 C 42.671875 217.992188 56.726562 224.449219 69.59375 237.75 C 85.730469 254.417969 88.195312 273.765625 88.507812 281.363281 C 88.421875 283.582031 88.507812 284.871094 88.507812 284.929688 L 91.273438 284.929688 C 91.273438 284.871094 91.367188 283.582031 91.273438 281.363281 C 91.585938 273.765625 94.054688 254.417969 110.1875 237.75 C 123.058594 224.449219 137.109375 217.992188 153.148438 217.992188 L 153.148438 215.222656 C 136.066406 215.222656 124.792969 210.457031 112.960938 198.230469 "/>
</g>
<g clip-path="url(#clip2)" clip-rule="nonzero">
<path style=" stroke:none;fill-rule:nonzero;fill:rgb(95.289612%,70.588684%,0%);fill-opacity:1;" d="M 48.367188 144.601562 C 38.421875 134.324219 37.839844 120.507812 37.832031 120.371094 L 36.488281 120.371094 C 36.484375 120.507812 35.914062 134.3125 25.953125 144.601562 C 20.210938 150.539062 14.738281 152.855469 6.4375 152.855469 L 6.4375 154.199219 C 14.226562 154.199219 21.050781 157.339844 27.304688 163.792969 C 35.140625 171.890625 36.335938 181.285156 36.488281 184.976562 C 36.445312 186.054688 36.488281 186.679688 36.488281 186.707031 L 37.832031 186.707031 C 37.832031 186.679688 37.875 186.054688 37.832031 184.976562 C 37.988281 181.285156 39.183594 171.890625 47.015625 163.792969 C 53.265625 157.339844 60.09375 154.199219 67.882812 154.199219 L 67.882812 152.855469 C 59.582031 152.855469 54.113281 150.539062 48.367188 144.601562 "/>
</g>
<g clip-path="url(#clip3)" clip-rule="nonzero">
<path style=" stroke:none;fill-rule:nonzero;fill:rgb(95.289612%,70.588684%,0%);fill-opacity:1;" d="M 111.890625 106.792969 C 104.957031 99.628906 104.550781 90 104.546875 89.90625 L 103.609375 89.90625 C 103.609375 90 103.21875 99.625 96.273438 106.792969 C 92.269531 110.929688 88.453125 112.539062 82.671875 112.539062 L 82.671875 113.476562 C 88.097656 113.476562 92.855469 115.664062 97.210938 120.164062 C 102.667969 125.804688 103.507812 132.351562 103.609375 134.925781 C 103.585938 135.675781 103.609375 136.113281 103.609375 136.128906 L 104.546875 136.128906 C 104.546875 136.113281 104.578125 135.675781 104.546875 134.925781 C 104.65625 132.351562 105.488281 125.804688 110.949219 120.164062 C 115.304688 115.664062 120.058594 113.476562 125.484375 113.476562 L 125.484375 112.539062 C 119.707031 112.539062 115.894531 110.929688 111.890625 106.792969 "/>
</g>
<g clip-path="url(#clip4)" clip-rule="nonzero">
<path style=" stroke:none;fill-rule:nonzero;fill:rgb(95.289612%,70.588684%,0%);fill-opacity:1;" d="M 243.789062 194.515625 C 230.316406 180.601562 229.523438 161.886719 229.515625 161.699219 L 227.695312 161.699219 C 227.6875 161.886719 226.917969 180.582031 213.421875 194.515625 C 205.632812 202.558594 198.214844 205.691406 186.96875 205.691406 L 186.96875 207.515625 C 197.527344 207.515625 206.777344 211.761719 215.246094 220.507812 C 225.867188 231.472656 227.488281 244.195312 227.695312 249.191406 C 227.636719 250.652344 227.695312 251.5 227.695312 251.539062 L 229.515625 251.539062 C 229.515625 251.5 229.578125 250.652344 229.515625 249.191406 C 229.722656 244.195312 231.347656 231.472656 241.964844 220.507812 C 250.4375 211.761719 259.683594 207.515625 270.242188 207.515625 L 270.242188 205.691406 C 258.996094 205.691406 251.578125 202.558594 243.789062 194.515625 "/>
</g>
<g clip-path="url(#clip5)" clip-rule="nonzero">
<path style=" stroke:none;fill-rule:nonzero;fill:rgb(95.289612%,70.588684%,0%);fill-opacity:1;" d="M 201.273438 159.246094 C 194.730469 152.488281 194.34375 143.398438 194.339844 143.308594 L 193.457031 143.308594 C 193.453125 143.398438 193.078125 152.480469 186.523438 159.246094 C 182.742188 163.152344 179.140625 164.675781 173.675781 164.675781 L 173.675781 165.558594 C 178.804688 165.558594 183.296875 167.625 187.414062 171.867188 C 192.566406 177.195312 193.355469 183.371094 193.457031 185.800781 C 193.429688 186.507812 193.457031 186.921875 193.457031 186.9375 L 194.339844 186.9375 C 194.339844 186.921875 194.371094 186.507812 194.339844 185.800781 C 194.441406 183.371094 195.230469 177.195312 200.386719 171.867188 C 204.5 167.625 208.992188 165.558594 214.117188 165.558594 L 214.117188 164.675781 C 208.65625 164.675781 205.058594 163.152344 201.273438 159.246094 "/>
</g>
<g clip-path="url(#clip6)" clip-rule="nonzero">
<path style=" stroke:none;fill-rule:nonzero;fill:rgb(95.289612%,70.588684%,0%);fill-opacity:1;" d="M 243.085938 134.378906 C 238.519531 129.667969 238.253906 123.335938 238.253906 123.273438 L 237.632812 123.273438 C 237.632812 123.335938 237.378906 129.667969 232.804688 134.378906 C 230.171875 137.101562 227.660156 138.160156 223.855469 138.160156 L 223.855469 138.777344 C 227.425781 138.777344 230.558594 140.214844 233.421875 143.175781 C 237.015625 146.882812 237.566406 151.191406 237.632812 152.882812 C 237.617188 153.375 237.632812 153.664062 237.632812 153.671875 L 238.253906 153.671875 C 238.253906 153.664062 238.273438 153.375 238.253906 152.882812 C 238.324219 151.191406 238.871094 146.882812 242.464844 143.175781 C 245.332031 140.214844 248.460938 138.777344 252.035156 138.777344 L 252.035156 138.160156 C 248.230469 138.160156 245.71875 137.101562 243.085938 134.378906 "/>
</g>
<g clip-path="url(#clip7)" clip-rule="nonzero">
<path style=" stroke:none;fill-rule:nonzero;fill:rgb(95.289612%,70.588684%,0%);fill-opacity:1;" d="M 349.964844 192.523438 C 340.5625 182.757812 340.011719 169.625 340.007812 169.492188 L 338.734375 169.492188 C 338.730469 169.625 338.191406 182.746094 328.777344 192.523438 C 323.34375 198.167969 318.167969 200.367188 310.320312 200.367188 L 310.320312 201.644531 C 317.6875 201.644531 324.140625 204.625 330.050781 210.761719 C 337.460938 218.457031 338.589844 227.386719 338.734375 230.890625 C 338.695312 231.917969 338.734375 232.511719 338.734375 232.539062 L 340.007812 232.539062 C 340.007812 232.511719 340.046875 231.917969 340.007812 230.890625 C 340.148438 227.386719 341.28125 218.457031 348.691406 210.761719 C 354.601562 204.625 361.054688 201.644531 368.421875 201.644531 L 368.421875 200.367188 C 360.574219 200.367188 355.398438 198.167969 349.964844 192.523438 "/>
</g>
<path style=" stroke:none;fill-rule:nonzero;fill:rgb(95.289612%,70.588684%,0%);fill-opacity:1;" d="M 320.300781 167.773438 C 315.734375 163.027344 315.46875 156.652344 315.464844 156.589844 L 314.847656 156.589844 C 314.84375 156.652344 314.582031 163.023438 310.007812 167.773438 C 307.371094 170.511719 304.859375 171.582031 301.046875 171.582031 L 301.046875 172.203125 C 304.625 172.203125 307.757812 173.652344 310.628906 176.628906 C 314.226562 180.367188 314.777344 184.703125 314.847656 186.40625 C 314.828125 186.902344 314.847656 187.195312 314.847656 187.207031 L 315.464844 187.207031 C 315.464844 187.195312 315.484375 186.902344 315.464844 186.40625 C 315.535156 184.703125 316.082031 180.367188 319.679688 176.628906 C 322.550781 173.652344 325.6875 172.203125 329.261719 172.203125 L 329.261719 171.582031 C 325.453125 171.582031 322.941406 170.511719 320.300781 167.773438 "/>
<g clip-path="url(#clip8)" clip-rule="nonzero">
<path style=" stroke:none;fill-rule:nonzero;fill:rgb(95.289612%,70.588684%,0%);fill-opacity:1;" d="M 349.472656 150.320312 C 346.289062 147.015625 346.105469 142.570312 346.101562 142.527344 L 345.667969 142.527344 C 345.667969 142.570312 345.492188 147.015625 342.300781 150.320312 C 340.460938 152.230469 338.710938 152.972656 336.054688 152.972656 L 336.054688 153.40625 C 338.546875 153.40625 340.734375 154.414062 342.730469 156.492188 C 345.238281 159.097656 345.625 162.117188 345.667969 163.304688 C 345.660156 163.652344 345.667969 163.855469 345.667969 163.859375 L 346.101562 163.859375 C 346.101562 163.855469 346.117188 163.652344 346.101562 163.304688 C 346.152344 162.117188 346.535156 159.097656 349.042969 156.492188 C 351.042969 154.414062 353.226562 153.40625 355.71875 153.40625 L 355.71875 152.972656 C 353.0625 152.972656 351.3125 152.230469 349.472656 150.320312 "/>
</g>
</g>
</svg>
