<?xml version="1.0" encoding="UTF-8"?>
<svg xmlns="http://www.w3.org/2000/svg" xmlns:xlink="http://www.w3.org/1999/xlink" width="375pt" height="374.999991pt" viewBox="0 0 375 374.999991" version="1.2">
<defs>
<clipPath id="clip1">
  <path d="M 230 148 L 357.636719 148 L 357.636719 284.917969 L 230 284.917969 Z M 230 148 "/>
</clipPath>
<clipPath id="clip2">
  <path d="M 210.636719 120 L 273 120 L 273 187 L 210.636719 187 Z M 210.636719 120 "/>
</clipPath>
<clipPath id="clip3">
  <path d="M 286 89.917969 L 330 89.917969 L 330 137 L 286 137 Z M 286 89.917969 "/>
</clipPath>
<clipPath id="clip4">
  <path d="M 127 161 L 210.734375 161 L 210.734375 251.53125 L 127 251.53125 Z M 127 161 "/>
</clipPath>
<clipPath id="clip5">
  <path d="M 164 123.28125 L 193 123.28125 L 193 154 L 164 154 Z M 164 123.28125 "/>
</clipPath>
<clipPath id="clip6">
  <path d="M 24 169 L 82.914062 169 L 82.914062 232.53125 L 24 232.53125 Z M 24 169 "/>
</clipPath>
<clipPath id="clip7">
  <path d="M 15.414062 156 L 44 156 L 44 188 L 15.414062 188 Z M 15.414062 156 "/>
</clipPath>
<clipPath id="clip8">
  <path d="M 50 142.53125 L 71 142.53125 L 71 164 L 50 164 Z M 50 142.53125 "/>
</clipPath>
</defs>
<g id="surface1">
<g clip-path="url(#clip1)" clip-rule="nonzero">
<path style=" stroke:none;fill-rule:nonzero;fill:rgb(95.289612%,70.588684%,0%);fill-opacity:1;" d="M 317.273438 198.230469 C 296.796875 177.074219 295.597656 148.613281 295.585938 148.328125 L 292.816406 148.328125 C 292.804688 148.613281 291.636719 177.042969 271.128906 198.230469 C 259.296875 210.457031 248.027344 215.222656 230.945312 215.222656 L 230.945312 217.992188 C 246.980469 217.992188 261.035156 224.449219 273.902344 237.75 C 290.039062 254.417969 292.503906 273.765625 292.816406 281.363281 C 292.730469 283.582031 292.816406 284.871094 292.816406 284.929688 L 295.585938 284.929688 C 295.585938 284.871094 295.675781 283.582031 295.585938 281.363281 C 295.894531 273.765625 298.363281 254.417969 314.5 237.75 C 327.371094 224.449219 341.417969 217.992188 357.460938 217.992188 L 357.460938 215.222656 C 340.375 215.222656 329.105469 210.457031 317.273438 198.230469 "/>
</g>
<g clip-path="url(#clip2)" clip-rule="nonzero">
<path style=" stroke:none;fill-rule:nonzero;fill:rgb(95.289612%,70.588684%,0%);fill-opacity:1;" d="M 252.675781 144.601562 C 242.730469 134.324219 242.148438 120.507812 242.140625 120.371094 L 240.800781 120.371094 C 240.792969 120.507812 240.226562 134.3125 230.265625 144.601562 C 224.519531 150.539062 219.046875 152.855469 210.746094 152.855469 L 210.746094 154.199219 C 218.539062 154.199219 225.363281 157.339844 231.617188 163.792969 C 239.449219 171.890625 240.644531 181.285156 240.800781 184.976562 C 240.753906 186.054688 240.800781 186.679688 240.800781 186.707031 L 242.140625 186.707031 C 242.140625 186.679688 242.1875 186.054688 242.140625 184.976562 C 242.296875 181.285156 243.492188 171.890625 251.324219 163.792969 C 257.578125 157.339844 264.402344 154.199219 272.191406 154.199219 L 272.191406 152.855469 C 263.894531 152.855469 258.425781 150.539062 252.675781 144.601562 "/>
</g>
<g clip-path="url(#clip3)" clip-rule="nonzero">
<path style=" stroke:none;fill-rule:nonzero;fill:rgb(95.289612%,70.588684%,0%);fill-opacity:1;" d="M 316.199219 106.792969 C 309.265625 99.628906 308.863281 90 308.859375 89.90625 L 307.917969 89.90625 C 307.917969 90 307.527344 99.625 300.582031 106.792969 C 296.578125 110.929688 292.765625 112.539062 286.980469 112.539062 L 286.980469 113.476562 C 292.40625 113.476562 297.167969 115.664062 301.523438 120.164062 C 306.976562 125.804688 307.816406 132.351562 307.917969 134.925781 C 307.894531 135.675781 307.917969 136.113281 307.917969 136.128906 L 308.859375 136.128906 C 308.859375 136.113281 308.886719 135.675781 308.859375 134.925781 C 308.964844 132.351562 309.796875 125.804688 315.257812 120.164062 C 319.617188 115.664062 324.371094 113.476562 329.796875 113.476562 L 329.796875 112.539062 C 324.019531 112.539062 320.203125 110.929688 316.199219 106.792969 "/>
</g>
<g clip-path="url(#clip4)" clip-rule="nonzero">
<path style=" stroke:none;fill-rule:nonzero;fill:rgb(95.289612%,70.588684%,0%);fill-opacity:1;" d="M 184.171875 194.515625 C 170.695312 180.601562 169.902344 161.886719 169.898438 161.699219 L 168.074219 161.699219 C 168.066406 161.886719 167.296875 180.582031 153.800781 194.515625 C 146.011719 202.558594 138.59375 205.691406 127.351562 205.691406 L 127.351562 207.515625 C 137.90625 207.515625 147.15625 211.761719 155.625 220.507812 C 166.246094 231.472656 167.871094 244.195312 168.074219 249.191406 C 168.019531 250.652344 168.074219 251.5 168.074219 251.539062 L 169.898438 251.539062 C 169.898438 251.5 169.957031 250.652344 169.898438 249.191406 C 170.101562 244.195312 171.726562 231.472656 182.34375 220.507812 C 190.816406 211.761719 200.066406 207.515625 210.621094 207.515625 L 210.621094 205.691406 C 199.378906 205.691406 191.957031 202.558594 184.171875 194.515625 "/>
</g>
<path style=" stroke:none;fill-rule:nonzero;fill:rgb(95.289612%,70.588684%,0%);fill-opacity:1;" d="M 141.65625 159.246094 C 135.109375 152.488281 134.726562 143.398438 134.71875 143.308594 L 133.839844 143.308594 C 133.832031 143.398438 133.460938 152.480469 126.902344 159.246094 C 123.121094 163.152344 119.519531 164.675781 114.058594 164.675781 L 114.058594 165.558594 C 119.1875 165.558594 123.675781 167.625 127.792969 171.867188 C 132.949219 177.195312 133.734375 183.371094 133.839844 185.800781 C 133.808594 186.507812 133.839844 186.921875 133.839844 186.9375 L 134.71875 186.9375 C 134.71875 186.921875 134.75 186.507812 134.71875 185.800781 C 134.824219 183.371094 135.609375 177.195312 140.765625 171.867188 C 144.878906 167.625 149.375 165.558594 154.5 165.558594 L 154.5 164.675781 C 149.039062 164.675781 145.4375 163.152344 141.65625 159.246094 "/>
<g clip-path="url(#clip5)" clip-rule="nonzero">
<path style=" stroke:none;fill-rule:nonzero;fill:rgb(95.289612%,70.588684%,0%);fill-opacity:1;" d="M 183.464844 134.378906 C 178.902344 129.667969 178.636719 123.335938 178.632812 123.273438 L 178.015625 123.273438 C 178.015625 123.335938 177.757812 129.667969 173.1875 134.378906 C 170.550781 137.101562 168.039062 138.160156 164.234375 138.160156 L 164.234375 138.777344 C 167.804688 138.777344 170.9375 140.214844 173.804688 143.175781 C 177.394531 146.882812 177.949219 151.191406 178.015625 152.882812 C 178 153.375 178.015625 153.664062 178.015625 153.671875 L 178.632812 153.671875 C 178.632812 153.664062 178.652344 153.375 178.632812 152.882812 C 178.703125 151.191406 179.25 146.882812 182.847656 143.175781 C 185.714844 140.214844 188.84375 138.777344 192.414062 138.777344 L 192.414062 138.160156 C 188.609375 138.160156 186.101562 137.101562 183.464844 134.378906 "/>
</g>
<g clip-path="url(#clip6)" clip-rule="nonzero">
<path style=" stroke:none;fill-rule:nonzero;fill:rgb(95.289612%,70.588684%,0%);fill-opacity:1;" d="M 64.378906 192.523438 C 54.976562 182.757812 54.425781 169.625 54.421875 169.492188 L 53.148438 169.492188 C 53.144531 169.625 52.605469 182.746094 43.191406 192.523438 C 37.757812 198.167969 32.582031 200.367188 24.734375 200.367188 L 24.734375 201.644531 C 32.101562 201.644531 38.554688 204.625 44.464844 210.761719 C 51.875 218.457031 53.007812 227.386719 53.148438 230.890625 C 53.109375 231.917969 53.148438 232.511719 53.148438 232.539062 L 54.421875 232.539062 C 54.421875 232.511719 54.460938 231.917969 54.421875 230.890625 C 54.5625 227.386719 55.695312 218.457031 63.105469 210.761719 C 69.019531 204.625 75.46875 201.644531 82.835938 201.644531 L 82.835938 200.367188 C 74.988281 200.367188 69.8125 198.167969 64.378906 192.523438 "/>
</g>
<g clip-path="url(#clip7)" clip-rule="nonzero">
<path style=" stroke:none;fill-rule:nonzero;fill:rgb(95.289612%,70.588684%,0%);fill-opacity:1;" d="M 34.714844 167.773438 C 30.148438 163.027344 29.882812 156.652344 29.878906 156.589844 L 29.261719 156.589844 C 29.257812 156.652344 28.996094 163.023438 24.421875 167.773438 C 21.785156 170.511719 19.273438 171.582031 15.460938 171.582031 L 15.460938 172.203125 C 19.039062 172.203125 22.171875 173.652344 25.042969 176.628906 C 28.640625 180.367188 29.191406 184.703125 29.261719 186.40625 C 29.242188 186.902344 29.261719 187.195312 29.261719 187.207031 L 29.878906 187.207031 C 29.878906 187.195312 29.898438 186.902344 29.878906 186.40625 C 29.949219 184.703125 30.496094 180.367188 34.09375 176.628906 C 36.964844 173.652344 40.101562 172.203125 43.675781 172.203125 L 43.675781 171.582031 C 39.867188 171.582031 37.355469 170.511719 34.714844 167.773438 "/>
</g>
<g clip-path="url(#clip8)" clip-rule="nonzero">
<path style=" stroke:none;fill-rule:nonzero;fill:rgb(95.289612%,70.588684%,0%);fill-opacity:1;" d="M 63.886719 150.320312 C 60.703125 147.015625 60.519531 142.570312 60.515625 142.527344 L 60.085938 142.527344 C 60.085938 142.570312 59.90625 147.015625 56.714844 150.320312 C 54.875 152.230469 53.125 152.972656 50.46875 152.972656 L 50.46875 153.40625 C 52.960938 153.40625 55.148438 154.414062 57.148438 156.492188 C 59.652344 159.097656 60.039062 162.117188 60.085938 163.304688 C 60.074219 163.652344 60.085938 163.855469 60.085938 163.859375 L 60.515625 163.859375 C 60.515625 163.855469 60.53125 163.652344 60.515625 163.304688 C 60.566406 162.117188 60.949219 159.097656 63.457031 156.492188 C 65.457031 154.414062 67.640625 153.40625 70.132812 153.40625 L 70.132812 152.972656 C 67.476562 152.972656 65.726562 152.230469 63.886719 150.320312 "/>
</g>
</g>
</svg>
